# xmcd
#
# Track frame offsets:
#	150
#	16575
#	36509
#	77530
#	101198
#	125489
#	146028
#	163660
#	204334
#	216909
#	236064
#	247885
#	259584
#	274342
#	285585
#	297208
#	310623
#	324778
#
# Disc length: 4483 seconds
#
# Revision: 1
# Processed by: cddbd v1.4PL0 Copyright (c) Steve Scherf et al.
# Submitted via: EasyCDDAExtractor 6.2.0.3
#
DISCID=00118112
DTITLE=Raymond Froggatt - Cold As A LandLLord's Heart Vol 1
DYEAR=1900
DGENRE=
TTITLE0=Watching the Light
TTITLE1=Spin A thought
TTITLE2=Flying
TTITLE3=You Sing So blue
TTITLE4=Everybodys Losing
TTITLE5=Restless Travellers
TTITLE6=Comin round
TTITLE7=Rogues And Thieves
TTITLE8=All Because Of You
TTITLE9=Coversations
TTITLE10=Luci Mae
TTITLE11=Give Me A Call
TTITLE12=Me And My Ideas
TTITLE13=Warm And Special Love
TTITLE14=It Doesnt Matter
TTITLE15=Cold As A LandLords Heart
TTITLE16=Top Of The Stairs
TTITLE17=Till The Night Is through
EXTD=
EXTT0=
EXTT1=
EXTT2=
EXTT3=
EXTT4=
EXTT5=
EXTT6=
EXTT7=
EXTT8=
EXTT9=
EXTT10=
EXTT11=
EXTT12=
EXTT13=
EXTT14=
EXTT15=
EXTT16=
EXTT17=
PLAYORDER=
